# xmcd CD database file
#
# Track frame offsets:
#	150
#	18975
#	36407
#	54940
#	73577
#	102804
#	122825
#	141957
#	158625
#	177655
#	192407
#
# Disc length: 3259 seconds
#
# Revision: 1
# Processed by: cddbd v1.5.2PL0 Copyright (c) Steve Scherf et al.
# Submitted via: CDex 1.72
#
DISCID=990cb90b
DTITLE=Bird, Laura, and the Fly By Night Orch. [CDN-00-Dreamweaver-Jazz) - Dreamweaver
DYEAR=2000
DGENRE=Jazz
TTITLE0=The Affections of May
TTITLE1=Oh Susanna
TTITLE2=You Tell me That I'm Fallin' Down
TTITLE3=Dreamwalker
TTITLE4=Man of Destiny
TTITLE5=Nothin' Takes me Home
TTITLE6=Arrow
TTITLE7=Lovers Again
TTITLE8=OKANADA
TTITLE9=Still Together
TTITLE10=My Heart's Arrow
EXTD=YEAR: 2000
EXTT0=
EXTT1=
EXTT2=
EXTT3=
EXTT4=
EXTT5=
EXTT6=
EXTT7=
EXTT8=
EXTT9=
EXTT10=
PLAYORDER=
